<svg width="165" height="30" viewBox="0 0 165 30" fill="none" xmlns="http://www.w3.org/2000/svg">
<mask id="mask0_2095_3535" style="mask-type:alpha" maskUnits="userSpaceOnUse" x="5" y="0" width="19" height="28">
<path d="M13.5523 27.9451L10.6826 24.2655C15.6749 20.3712 17.0575 18.1244 18.1395 15.9802C18.3062 15.6515 18.4439 15.3089 18.5512 14.9563C19.5124 12.1476 18.742 10.0027 16.8425 8.5774C15.4613 7.53851 14.0956 7.19457 12.8517 7.19485L14.4482 4.42957C15.9625 4.45283 17.4594 4.86223 18.8153 5.64509C20.8828 6.83875 22.389 8.70486 23.0562 10.899C23.7629 13.2209 23.5021 15.7047 22.3057 18.0803C20.7479 21.1705 18.7394 23.8983 13.5523 27.9451Z" fill="white"/>
<path d="M15.4489 19.9592C14.7347 20.7551 13.8413 21.6334 12.6851 22.6292C11.6483 22.4423 10.6518 22.0768 9.74008 21.5489C5.37107 19.0265 3.86993 13.417 6.394 9.04514L11.6162 0L15.6579 2.33345L10.4347 11.3802C10.2415 11.7147 10.0923 12.0727 9.99068 12.4454L9.98907 12.4444C9.27196 14.8637 9.93169 17.2632 11.6868 18.5822C12.9855 19.5587 14.2662 19.9202 15.4489 19.9592Z" fill="white"/>
<path d="M15.4474 19.9622C14.2647 19.9232 12.984 19.5621 11.686 18.586C9.93035 17.2666 9.27063 14.8671 9.98824 12.4482C9.46721 14.3648 10.2748 16.4711 12.0731 17.5094C14.2031 18.7392 16.9326 18.0163 18.1779 15.8999C18.1673 15.9258 18.1541 15.9524 18.1418 15.9774C17.5356 17.1819 16.8325 18.4182 15.4474 19.9622Z" fill="white"/>
<path d="M18.5506 14.9556C18.8316 14.0209 18.8478 13.1044 18.5922 12.2597C18.2693 11.2014 17.5202 10.2894 16.4801 9.68884C14.3486 8.45826 11.6932 9.20028 10.4349 11.3797L12.8515 7.19404C14.0954 7.19361 15.4612 7.5375 16.8423 8.57644C18.7411 10.0025 19.5118 12.1469 18.5506 14.9556Z" fill="white"/>
</mask>
<g mask="url(#mask0_2095_3535)">
<rect x="10.6826" y="-0.454102" width="38.8456" height="23.3073" transform="rotate(30 10.6826 -0.454102)" fill="white"/>
</g>
<path d="M37.1133 4H39.9375V19.293L39.668 22H37.1133V4ZM48.2109 15.543V15.7891C48.2109 16.7266 48.1055 17.5898 47.8945 18.3789C47.6914 19.1602 47.3789 19.8398 46.957 20.418C46.543 20.9961 46.0273 21.4453 45.4102 21.7656C44.8008 22.0781 44.0938 22.2344 43.2891 22.2344C42.5 22.2344 41.8125 22.0859 41.2266 21.7891C40.6406 21.4922 40.1484 21.0703 39.75 20.5234C39.3594 19.9766 39.043 19.3242 38.8008 18.5664C38.5586 17.8086 38.3867 16.9727 38.2852 16.0586V15.2734C38.3867 14.3516 38.5586 13.5156 38.8008 12.7656C39.043 12.0078 39.3594 11.3555 39.75 10.8086C40.1484 10.2539 40.6367 9.82812 41.2148 9.53125C41.8008 9.23438 42.4844 9.08594 43.2656 9.08594C44.0781 9.08594 44.793 9.24219 45.4102 9.55469C46.0352 9.86719 46.5547 10.3125 46.9688 10.8906C47.3828 11.4609 47.6914 12.1406 47.8945 12.9297C48.1055 13.7188 48.2109 14.5898 48.2109 15.543ZM45.3867 15.7891V15.543C45.3867 14.9727 45.3398 14.4375 45.2461 13.9375C45.1523 13.4297 44.9961 12.9844 44.7773 12.6016C44.5664 12.2188 44.2773 11.918 43.9102 11.6992C43.5508 11.4727 43.1016 11.3594 42.5625 11.3594C42.0625 11.3594 41.6328 11.4453 41.2734 11.6172C40.9141 11.7891 40.6133 12.0234 40.3711 12.3203C40.1289 12.6172 39.9375 12.9609 39.7969 13.3516C39.6641 13.7422 39.5742 14.1641 39.5273 14.6172V16.7383C39.5977 17.3242 39.7461 17.8633 39.9727 18.3555C40.207 18.8398 40.5352 19.2305 40.957 19.5273C41.3789 19.8164 41.9219 19.9609 42.5859 19.9609C43.1094 19.9609 43.5508 19.8555 43.9102 19.6445C44.2695 19.4336 44.5547 19.1406 44.7656 18.7656C44.9844 18.3828 45.1406 17.9375 45.2344 17.4297C45.3359 16.9219 45.3867 16.375 45.3867 15.7891ZM53.625 9.32031V22H50.7891V9.32031H53.625ZM50.6016 5.99219C50.6016 5.5625 50.7422 5.20703 51.0234 4.92578C51.3125 4.63672 51.7109 4.49219 52.2188 4.49219C52.7188 4.49219 53.1133 4.63672 53.4023 4.92578C53.6914 5.20703 53.8359 5.5625 53.8359 5.99219C53.8359 6.41406 53.6914 6.76562 53.4023 7.04688C53.1133 7.32812 52.7188 7.46875 52.2188 7.46875C51.7109 7.46875 51.3125 7.32812 51.0234 7.04688C50.7422 6.76562 50.6016 6.41406 50.6016 5.99219ZM62.5312 9.32031V11.3828H55.3828V9.32031H62.5312ZM57.4453 6.21484H60.2695V18.4961C60.2695 18.8867 60.3242 19.1875 60.4336 19.3984C60.5508 19.6016 60.7109 19.7383 60.9141 19.8086C61.1172 19.8789 61.3555 19.9141 61.6289 19.9141C61.8242 19.9141 62.0117 19.9023 62.1914 19.8789C62.3711 19.8555 62.5156 19.832 62.625 19.8086L62.6367 21.9648C62.4023 22.0352 62.1289 22.0977 61.8164 22.1523C61.5117 22.207 61.1602 22.2344 60.7617 22.2344C60.1133 22.2344 59.5391 22.1211 59.0391 21.8945C58.5391 21.6602 58.1484 21.2812 57.8672 20.7578C57.5859 20.2344 57.4453 19.5391 57.4453 18.6719V6.21484ZM71.8242 18.5664C71.8242 18.2852 71.7539 18.0312 71.6133 17.8047C71.4727 17.5703 71.2031 17.3594 70.8047 17.1719C70.4141 16.9844 69.8359 16.8125 69.0703 16.6562C68.3984 16.5078 67.7812 16.332 67.2188 16.1289C66.6641 15.918 66.1875 15.6641 65.7891 15.3672C65.3906 15.0703 65.082 14.7188 64.8633 14.3125C64.6445 13.9062 64.5352 13.4375 64.5352 12.9062C64.5352 12.3906 64.6484 11.9023 64.875 11.4414C65.1016 10.9805 65.4258 10.5742 65.8477 10.2227C66.2695 9.87109 66.7812 9.59375 67.3828 9.39062C67.9922 9.1875 68.6719 9.08594 69.4219 9.08594C70.4844 9.08594 71.3945 9.26562 72.1523 9.625C72.918 9.97656 73.5039 10.457 73.9102 11.0664C74.3164 11.668 74.5195 12.3477 74.5195 13.1055H71.6953C71.6953 12.7695 71.6094 12.457 71.4375 12.168C71.2734 11.8711 71.0234 11.6328 70.6875 11.4531C70.3516 11.2656 69.9297 11.1719 69.4219 11.1719C68.9375 11.1719 68.5352 11.25 68.2148 11.4062C67.9023 11.5547 67.668 11.75 67.5117 11.9922C67.3633 12.2344 67.2891 12.5 67.2891 12.7891C67.2891 13 67.3281 13.1914 67.4062 13.3633C67.4922 13.5273 67.6328 13.6797 67.8281 13.8203C68.0234 13.9531 68.2891 14.0781 68.625 14.1953C68.9688 14.3125 69.3984 14.4258 69.9141 14.5352C70.8828 14.7383 71.7148 15 72.4102 15.3203C73.1133 15.6328 73.6523 16.0391 74.0273 16.5391C74.4023 17.0312 74.5898 17.6562 74.5898 18.4141C74.5898 18.9766 74.4688 19.4922 74.2266 19.9609C73.9922 20.4219 73.6484 20.8242 73.1953 21.168C72.7422 21.5039 72.1992 21.7656 71.5664 21.9531C70.9414 22.1406 70.2383 22.2344 69.457 22.2344C68.3086 22.2344 67.3359 22.0312 66.5391 21.625C65.7422 21.2109 65.1367 20.6836 64.7227 20.043C64.3164 19.3945 64.1133 18.7227 64.1133 18.0273H66.8438C66.875 18.5508 67.0195 18.9688 67.2773 19.2812C67.543 19.5859 67.8711 19.8086 68.2617 19.9492C68.6602 20.082 69.0703 20.1484 69.4922 20.1484C70 20.1484 70.4258 20.082 70.7695 19.9492C71.1133 19.8086 71.375 19.6211 71.5547 19.3867C71.7344 19.1445 71.8242 18.8711 71.8242 18.5664ZM82.5 15.8008V15.5312C82.5 14.6172 82.6328 13.7695 82.8984 12.9883C83.1641 12.1992 83.5469 11.5156 84.0469 10.9375C84.5547 10.3516 85.1719 9.89844 85.8984 9.57812C86.6328 9.25 87.4609 9.08594 88.3828 9.08594C89.3125 9.08594 90.1406 9.25 90.8672 9.57812C91.6016 9.89844 92.2227 10.3516 92.7305 10.9375C93.2383 11.5156 93.625 12.1992 93.8906 12.9883C94.1562 13.7695 94.2891 14.6172 94.2891 15.5312V15.8008C94.2891 16.7148 94.1562 17.5625 93.8906 18.3438C93.625 19.125 93.2383 19.8086 92.7305 20.3945C92.2227 20.9727 91.6055 21.4258 90.8789 21.7539C90.1523 22.0742 89.3281 22.2344 88.4062 22.2344C87.4766 22.2344 86.6445 22.0742 85.9102 21.7539C85.1836 21.4258 84.5664 20.9727 84.0586 20.3945C83.5508 19.8086 83.1641 19.125 82.8984 18.3438C82.6328 17.5625 82.5 16.7148 82.5 15.8008ZM85.3242 15.5312V15.8008C85.3242 16.3711 85.3828 16.9102 85.5 17.418C85.6172 17.9258 85.8008 18.3711 86.0508 18.7539C86.3008 19.1367 86.6211 19.4375 87.0117 19.6562C87.4023 19.875 87.8672 19.9844 88.4062 19.9844C88.9297 19.9844 89.3828 19.875 89.7656 19.6562C90.1562 19.4375 90.4766 19.1367 90.7266 18.7539C90.9766 18.3711 91.1602 17.9258 91.2773 17.418C91.4023 16.9102 91.4648 16.3711 91.4648 15.8008V15.5312C91.4648 14.9688 91.4023 14.4375 91.2773 13.9375C91.1602 13.4297 90.9727 12.9805 90.7148 12.5898C90.4648 12.1992 90.1445 11.8945 89.7539 11.6758C89.3711 11.4492 88.9141 11.3359 88.3828 11.3359C87.8516 11.3359 87.3906 11.4492 87 11.6758C86.6172 11.8945 86.3008 12.1992 86.0508 12.5898C85.8008 12.9805 85.6172 13.4297 85.5 13.9375C85.3828 14.4375 85.3242 14.9688 85.3242 15.5312ZM100.477 22H97.6523V8.10156C97.6523 7.15625 97.8281 6.36328 98.1797 5.72266C98.5391 5.07422 99.0508 4.58594 99.7148 4.25781C100.379 3.92187 101.164 3.75391 102.07 3.75391C102.352 3.75391 102.629 3.77344 102.902 3.8125C103.176 3.84375 103.441 3.89453 103.699 3.96484L103.629 6.14453C103.473 6.10547 103.301 6.07812 103.113 6.0625C102.934 6.04688 102.738 6.03906 102.527 6.03906C102.098 6.03906 101.727 6.12109 101.414 6.28516C101.109 6.44141 100.875 6.67188 100.711 6.97656C100.555 7.28125 100.477 7.65625 100.477 8.10156V22ZM103.09 9.32031V11.3828H95.707V9.32031H103.09ZM119.238 9.32031H121.805V21.6484C121.805 22.7891 121.562 23.7578 121.078 24.5547C120.594 25.3516 119.918 25.957 119.051 26.3711C118.184 26.793 117.18 27.0039 116.039 27.0039C115.555 27.0039 115.016 26.9336 114.422 26.793C113.836 26.6523 113.266 26.4258 112.711 26.1133C112.164 25.8086 111.707 25.4062 111.34 24.9062L112.664 23.2422C113.117 23.7812 113.617 24.1758 114.164 24.4258C114.711 24.6758 115.285 24.8008 115.887 24.8008C116.535 24.8008 117.086 24.6797 117.539 24.4375C118 24.2031 118.355 23.8555 118.605 23.3945C118.855 22.9336 118.98 22.3711 118.98 21.707V12.1914L119.238 9.32031ZM110.625 15.8008V15.5547C110.625 14.5938 110.742 13.7188 110.977 12.9297C111.211 12.1328 111.547 11.4492 111.984 10.8789C112.422 10.3008 112.953 9.85938 113.578 9.55469C114.203 9.24219 114.91 9.08594 115.699 9.08594C116.52 9.08594 117.219 9.23438 117.797 9.53125C118.383 9.82812 118.871 10.2539 119.262 10.8086C119.652 11.3555 119.957 12.0117 120.176 12.7773C120.402 13.5352 120.57 14.3789 120.68 15.3086V16.0938C120.578 17 120.406 17.8281 120.164 18.5781C119.922 19.3281 119.602 19.9766 119.203 20.5234C118.805 21.0703 118.312 21.4922 117.727 21.7891C117.148 22.0859 116.465 22.2344 115.676 22.2344C114.902 22.2344 114.203 22.0742 113.578 21.7539C112.961 21.4336 112.43 20.9844 111.984 20.4062C111.547 19.8281 111.211 19.1484 110.977 18.3672C110.742 17.5781 110.625 16.7227 110.625 15.8008ZM113.449 15.5547V15.8008C113.449 16.3789 113.504 16.918 113.613 17.418C113.73 17.918 113.906 18.3594 114.141 18.7422C114.383 19.1172 114.688 19.4141 115.055 19.6328C115.43 19.8438 115.871 19.9492 116.379 19.9492C117.043 19.9492 117.586 19.8086 118.008 19.5273C118.438 19.2461 118.766 18.8672 118.992 18.3906C119.227 17.9062 119.391 17.3672 119.484 16.7734V14.6523C119.438 14.1914 119.34 13.7617 119.191 13.3633C119.051 12.9648 118.859 12.6172 118.617 12.3203C118.375 12.0156 118.07 11.7812 117.703 11.6172C117.336 11.4453 116.902 11.3594 116.402 11.3594C115.895 11.3594 115.453 11.4688 115.078 11.6875C114.703 11.9062 114.395 12.207 114.152 12.5898C113.918 12.9727 113.742 13.418 113.625 13.9258C113.508 14.4336 113.449 14.9766 113.449 15.5547ZM124.195 15.8008V15.5312C124.195 14.6172 124.328 13.7695 124.594 12.9883C124.859 12.1992 125.242 11.5156 125.742 10.9375C126.25 10.3516 126.867 9.89844 127.594 9.57812C128.328 9.25 129.156 9.08594 130.078 9.08594C131.008 9.08594 131.836 9.25 132.562 9.57812C133.297 9.89844 133.918 10.3516 134.426 10.9375C134.934 11.5156 135.32 12.1992 135.586 12.9883C135.852 13.7695 135.984 14.6172 135.984 15.5312V15.8008C135.984 16.7148 135.852 17.5625 135.586 18.3438C135.32 19.125 134.934 19.8086 134.426 20.3945C133.918 20.9727 133.301 21.4258 132.574 21.7539C131.848 22.0742 131.023 22.2344 130.102 22.2344C129.172 22.2344 128.34 22.0742 127.605 21.7539C126.879 21.4258 126.262 20.9727 125.754 20.3945C125.246 19.8086 124.859 19.125 124.594 18.3438C124.328 17.5625 124.195 16.7148 124.195 15.8008ZM127.02 15.5312V15.8008C127.02 16.3711 127.078 16.9102 127.195 17.418C127.312 17.9258 127.496 18.3711 127.746 18.7539C127.996 19.1367 128.316 19.4375 128.707 19.6562C129.098 19.875 129.562 19.9844 130.102 19.9844C130.625 19.9844 131.078 19.875 131.461 19.6562C131.852 19.4375 132.172 19.1367 132.422 18.7539C132.672 18.3711 132.855 17.9258 132.973 17.418C133.098 16.9102 133.16 16.3711 133.16 15.8008V15.5312C133.16 14.9688 133.098 14.4375 132.973 13.9375C132.855 13.4297 132.668 12.9805 132.41 12.5898C132.16 12.1992 131.84 11.8945 131.449 11.6758C131.066 11.4492 130.609 11.3359 130.078 11.3359C129.547 11.3359 129.086 11.4492 128.695 11.6758C128.312 11.8945 127.996 12.1992 127.746 12.5898C127.496 12.9805 127.312 13.4297 127.195 13.9375C127.078 14.4375 127.02 14.9688 127.02 15.5312ZM137.812 15.8008V15.5312C137.812 14.6172 137.945 13.7695 138.211 12.9883C138.477 12.1992 138.859 11.5156 139.359 10.9375C139.867 10.3516 140.484 9.89844 141.211 9.57812C141.945 9.25 142.773 9.08594 143.695 9.08594C144.625 9.08594 145.453 9.25 146.18 9.57812C146.914 9.89844 147.535 10.3516 148.043 10.9375C148.551 11.5156 148.938 12.1992 149.203 12.9883C149.469 13.7695 149.602 14.6172 149.602 15.5312V15.8008C149.602 16.7148 149.469 17.5625 149.203 18.3438C148.938 19.125 148.551 19.8086 148.043 20.3945C147.535 20.9727 146.918 21.4258 146.191 21.7539C145.465 22.0742 144.641 22.2344 143.719 22.2344C142.789 22.2344 141.957 22.0742 141.223 21.7539C140.496 21.4258 139.879 20.9727 139.371 20.3945C138.863 19.8086 138.477 19.125 138.211 18.3438C137.945 17.5625 137.812 16.7148 137.812 15.8008ZM140.637 15.5312V15.8008C140.637 16.3711 140.695 16.9102 140.812 17.418C140.93 17.9258 141.113 18.3711 141.363 18.7539C141.613 19.1367 141.934 19.4375 142.324 19.6562C142.715 19.875 143.18 19.9844 143.719 19.9844C144.242 19.9844 144.695 19.875 145.078 19.6562C145.469 19.4375 145.789 19.1367 146.039 18.7539C146.289 18.3711 146.473 17.9258 146.59 17.418C146.715 16.9102 146.777 16.3711 146.777 15.8008V15.5312C146.777 14.9688 146.715 14.4375 146.59 13.9375C146.473 13.4297 146.285 12.9805 146.027 12.5898C145.777 12.1992 145.457 11.8945 145.066 11.6758C144.684 11.4492 144.227 11.3359 143.695 11.3359C143.164 11.3359 142.703 11.4492 142.312 11.6758C141.93 11.8945 141.613 12.1992 141.363 12.5898C141.113 12.9805 140.93 13.4297 140.812 13.9375C140.695 14.4375 140.637 14.9688 140.637 15.5312ZM159.703 19.375V4H162.539V22H159.973L159.703 19.375ZM151.453 15.8008V15.5547C151.453 14.5938 151.566 13.7188 151.793 12.9297C152.02 12.1328 152.348 11.4492 152.777 10.8789C153.207 10.3008 153.73 9.85938 154.348 9.55469C154.965 9.24219 155.66 9.08594 156.434 9.08594C157.199 9.08594 157.871 9.23438 158.449 9.53125C159.027 9.82812 159.52 10.2539 159.926 10.8086C160.332 11.3555 160.656 12.0117 160.898 12.7773C161.141 13.5352 161.312 14.3789 161.414 15.3086V16.0938C161.312 17 161.141 17.8281 160.898 18.5781C160.656 19.3281 160.332 19.9766 159.926 20.5234C159.52 21.0703 159.023 21.4922 158.438 21.7891C157.859 22.0859 157.184 22.2344 156.41 22.2344C155.645 22.2344 154.953 22.0742 154.336 21.7539C153.727 21.4336 153.207 20.9844 152.777 20.4062C152.348 19.8281 152.02 19.1484 151.793 18.3672C151.566 17.5781 151.453 16.7227 151.453 15.8008ZM154.277 15.5547V15.8008C154.277 16.3789 154.328 16.918 154.43 17.418C154.539 17.918 154.707 18.3594 154.934 18.7422C155.16 19.1172 155.453 19.4141 155.812 19.6328C156.18 19.8438 156.617 19.9492 157.125 19.9492C157.766 19.9492 158.293 19.8086 158.707 19.5273C159.121 19.2461 159.445 18.8672 159.68 18.3906C159.922 17.9062 160.086 17.3672 160.172 16.7734V14.6523C160.125 14.1914 160.027 13.7617 159.879 13.3633C159.738 12.9648 159.547 12.6172 159.305 12.3203C159.062 12.0156 158.762 11.7812 158.402 11.6172C158.051 11.4453 157.633 11.3594 157.148 11.3594C156.633 11.3594 156.195 11.4688 155.836 11.6875C155.477 11.9062 155.18 12.207 154.945 12.5898C154.719 12.9727 154.551 13.418 154.441 13.9258C154.332 14.4336 154.277 14.9766 154.277 15.5547Z" fill="white"/>
</svg>
